<?xml version="1.0" encoding="UTF-8"?>
<svg version="1.1" xmlns="http://www.w3.org/2000/svg" width="834" height="834">
<path d="M0 0 C275.22 0 550.44 0 834 0 C834 275.22 834 550.44 834 834 C558.78 834 283.56 834 0 834 C0 558.78 0 283.56 0 0 Z " fill="#FEFEFE" transform="translate(0,0)"/>
<path d="M0 0 C4.36855815 1.74742326 8.18469447 3.77906903 12.1875 6.1875 C13.71289681 7.094835 15.2389842 8.00100965 16.765625 8.90625 C17.60029297 9.40125 18.43496094 9.89625 19.29492188 10.40625 C24.32225035 13.36819949 29.3810502 16.27563945 34.4375 19.1875 C35.54311279 19.82453857 36.64872559 20.46157715 37.7878418 21.11791992 C40.06009849 22.4269711 42.33247897 23.73580743 44.60498047 25.04443359 C50.0716998 28.19332054 55.53574887 31.34683264 61 34.5 C63.16665311 35.7500235 65.33331979 37.00002347 67.5 38.25 C106.5 60.75 145.5 83.25 184.5 105.75 C185.57266113 106.36883057 186.64532227 106.98766113 187.75048828 107.62524414 C189.91557071 108.87435518 192.08060982 110.12354129 194.24560547 111.37280273 C199.68615706 114.51202309 205.12747216 117.64990563 210.5703125 120.78515625 C221.36901945 127.00675241 232.16185963 133.23852483 242.9375 139.5 C243.88963379 140.05115479 244.84176758 140.60230957 245.82275391 141.17016602 C262.76095818 151.03210443 277.23345743 160.1564392 283 180 C283.69436061 185.87448102 283.70637516 191.68525237 283.6640625 197.59375 C283.66744044 199.27421416 283.67230115 200.95467593 283.67855835 202.63513184 C283.68588377 206.1383414 283.67536585 209.64090875 283.65185547 213.14404297 C283.62336961 217.60238535 283.63979715 222.05922213 283.66971779 226.51750946 C283.68790921 229.98202567 283.68197905 233.44619329 283.66907883 236.91072083 C283.66577738 238.5531279 283.66971506 240.19556812 283.68147659 241.8379364 C283.76387822 256.57291198 280.36170476 269.10844464 270.02734375 280.09765625 C262.78877916 286.93890683 254.52727793 292.50802074 246.42626953 298.26318359 C242.41871771 301.13194226 238.46068222 304.06705109 234.5 307 C227.62352235 312.08279698 220.70965936 317.11003503 213.76953125 322.10546875 C208.31916162 326.03392016 202.90325984 330.00705268 197.5 334 C190.6229644 339.08205078 183.70966917 344.11002797 176.76953125 349.10546875 C170.52504432 353.60629441 164.32867691 358.1703493 158.13842773 362.74536133 C151.71942859 367.48377875 145.26130622 372.16623206 138.78515625 376.82617188 C138.08390625 377.33083984 137.38265625 377.83550781 136.66015625 378.35546875 C135.6858667 379.04842041 135.6858667 379.04842041 134.69189453 379.75537109 C132.87129388 381.05704066 132.87129388 381.05704066 130.80859375 382.92578125 C129 384 129 384 126.70654297 383.73388672 C123.78025179 382.94041466 121.5230834 381.82619135 118.88671875 380.33203125 C117.89873291 379.77588135 116.91074707 379.21973145 115.89282227 378.64672852 C114.30618774 377.7387854 114.30618774 377.7387854 112.6875 376.8125 C111.57882568 376.184646 110.47015137 375.55679199 109.32788086 374.90991211 C99.87034342 369.53806301 90.47298349 364.06304021 81.08984375 358.5625 C74.78429585 354.86786692 68.45705914 351.21146714 62.125 347.5625 C61.06369873 346.95083984 60.00239746 346.33917969 58.90893555 345.70898438 C56.73820527 344.45818271 54.5673872 343.20753341 52.39648438 341.95703125 C46.97553508 338.83351705 41.55663134 335.70645884 36.13763428 332.57955933 C33.34965241 330.97086318 30.56153985 329.36239358 27.7734375 327.75390625 C26.18229167 326.8359375 24.59114583 325.91796875 23 325 C23 324.01 23 323.02 23 322 C24.35083008 320.68823242 24.35083008 320.68823242 26.26953125 319.35546875 C26.98367188 318.85080078 27.6978125 318.34613281 28.43359375 317.82617188 C29.21863281 317.28541016 30.00367188 316.74464844 30.8125 316.1875 C32.4759983 315.01536943 34.13873484 313.84215716 35.80078125 312.66796875 C36.66268066 312.06259277 37.52458008 311.4572168 38.41259766 310.83349609 C42.48518346 307.94756295 46.4913317 304.97374387 50.5 302 C57.37600665 296.9165737 64.29034909 291.88995888 71.23046875 286.89453125 C76.68083838 282.96607984 82.09674016 278.99294732 87.5 275 C94.3770356 269.91794922 101.29033083 264.88997203 108.23046875 259.89453125 C114.47314897 255.39500781 120.66986409 250.83507883 126.85498047 246.25683594 C130.93697775 243.23996499 135.03479122 240.2487985 139.1640625 237.296875 C140.41219727 236.40355469 140.41219727 236.40355469 141.68554688 235.4921875 C143.28056664 234.3530701 144.87812653 233.21749892 146.47851562 232.0859375 C147.18943359 231.57804688 147.90035156 231.07015625 148.6328125 230.546875 C149.26074707 230.10182617 149.88868164 229.65677734 150.53564453 229.19824219 C152.14739364 228.04605122 152.14739364 228.04605122 153 226 C151.46859375 225.16082031 151.46859375 225.16082031 149.90625 224.3046875 C140.04898688 218.87822603 130.29923061 213.28692428 120.59179688 207.59716797 C112.75806077 203.01111713 104.88737184 198.49282043 97 194 C87.32499637 188.48770144 77.6871741 182.91575168 68.078125 177.2890625 C59.82805577 172.46560933 51.533381 167.72254576 43.23013306 162.99157715 C31.95861314 156.56766386 20.74401744 150.04937984 9.5534668 143.48535156 C6.37934399 141.63896442 3.18826177 139.82186387 0 138 C0 92.46 0 46.92 0 0 Z " fill="#E42628" transform="translate(365,141)"/>
<path d="M0 0 C2.88929688 0.81881943 5.16593737 1.94280398 7.77783203 3.4230957 C8.76565674 3.97916504 9.75348145 4.53523438 10.77124023 5.1081543 C12.35811646 6.01621826 12.35811646 6.01621826 13.97705078 6.94262695 C15.08717529 7.57120605 16.1972998 8.19978516 17.34106445 8.84741211 C25.74334735 13.61931394 34.09734311 18.47396066 42.43164062 23.36352539 C49.53197561 27.52662581 56.67108661 31.61772361 63.82711792 35.68389893 C77.57092616 43.49476596 91.14972847 51.55351975 104.66455078 59.75512695 C100.66963394 64.02420475 96.30935819 67.32935425 91.53955078 70.69262695 C89.92173535 71.84669512 88.30456874 73.00167327 86.68798828 74.1574707 C85.85750977 74.75027832 85.02703125 75.34308594 84.17138672 75.95385742 C80.14112383 78.8497748 76.15333252 81.80247267 72.16455078 84.75512695 C65.28797015 89.83778646 58.37421202 94.86516064 51.43408203 99.8605957 C45.9837124 103.78904711 40.56781062 107.76217964 35.16455078 111.75512695 C29.02438881 116.29263654 22.86104271 120.79484688 16.66455078 125.25512695 C8.04434216 131.46122291 -0.50629613 137.75916617 -9.05029297 144.06958008 C-12.70261742 146.76355957 -16.36234268 149.44741711 -20.02294922 152.13012695 C-20.66514404 152.6007959 -21.30733887 153.07146484 -21.96899414 153.55639648 C-23.4243419 154.62282733 -24.8798721 155.68900918 -26.33544922 156.75512695 C-23.405697 159.04263655 -20.39544557 160.95491487 -17.17138672 162.80200195 C-16.14513184 163.39182861 -15.11887695 163.98165527 -14.06152344 164.58935547 C-12.95566895 165.22156006 -11.84981445 165.85376465 -10.71044922 166.50512695 C-9.54508431 167.17403237 -8.37988532 167.84322691 -7.21484375 168.51269531 C-4.79346991 169.90374874 -2.37138799 171.29355653 0.05126953 172.68237305 C5.63606136 175.88481104 11.21296881 179.10092008 16.78955078 182.31762695 C17.86688477 182.93871338 18.94421875 183.5597998 20.05419922 184.19970703 C27.23012268 188.34003595 34.38854743 192.50943835 41.53955078 196.69262695 C50.21717517 201.76787934 58.93068005 206.77758324 67.66455078 211.75512695 C95.8081332 227.7960084 95.8081332 227.7960084 102.32110596 231.9095459 C104.95692643 233.36451842 107.09348195 234.27252526 109.90362549 235.19421387 C115.02499913 237.11717381 119.34107638 239.28831524 122.66455078 243.75512695 C125.65301831 252.7995588 124.6969924 263.01326588 124.38824773 272.43335199 C124.28139397 276.24581896 124.27194632 280.05855073 124.2518158 283.87228394 C124.19913732 291.0812222 124.05988688 298.28573649 123.88887447 305.49273288 C123.69832881 313.70257967 123.60526195 321.91264698 123.52005208 330.12415719 C123.34272739 347.00369928 123.04405914 363.87894436 122.66455078 380.75512695 C118.57130323 379.43411953 115.02048603 377.98122302 111.30517578 375.8059082 C109.77570313 374.91645508 109.77570313 374.91645508 108.21533203 374.0090332 C107.12607422 373.36836914 106.03681641 372.72770508 104.91455078 372.06762695 C103.75734106 371.39256056 102.59978221 370.71809234 101.44189453 370.04418945 C99.03884496 368.6449689 96.63731158 367.2431976 94.23681641 365.83959961 C88.72668267 362.6206333 83.19447461 359.4399285 77.66455078 356.25512695 C75.49778099 355.00530571 73.33111463 353.75530515 71.16455078 352.50512695 C70.09205078 351.88637695 69.01955078 351.26762695 67.91455078 350.63012695 C47.33121745 338.75512695 26.74788411 326.88012695 6.16455078 315.00512695 C5.09188965 314.38629639 4.01922852 313.76746582 2.9140625 313.12988281 C0.74898007 311.88077177 -1.41605904 310.63158566 -3.58105469 309.38232422 C-9.02160628 306.24310386 -14.46292138 303.10522133 -19.90576172 299.9699707 C-30.35751121 293.94765367 -40.7984447 287.90843358 -51.21044922 281.81762695 C-59.88807374 276.74237449 -68.60158459 271.73268142 -77.33544922 266.75512695 C-87.0908159 261.19484458 -96.8242308 255.59930672 -106.5078125 249.91455078 C-111.58784382 246.93268222 -116.68303356 243.98418038 -121.81201172 241.0871582 C-122.88290039 240.47694824 -123.95378906 239.86673828 -125.05712891 239.23803711 C-127.08078704 238.0858242 -129.10968374 236.94273635 -131.14501953 235.8112793 C-146.27994706 227.14883643 -155.14203724 216.55044841 -159.85949707 199.78742981 C-161.17706133 194.16146591 -161.00228318 188.41840237 -160.92919922 182.67700195 C-160.92748033 181.28989771 -160.92756165 179.90279023 -160.92932129 178.51568604 C-160.92768612 175.63814318 -160.90932022 172.7613965 -160.87744141 169.8840332 C-160.83761804 166.22743143 -160.83342511 162.57185884 -160.84090424 158.91508102 C-160.84399651 156.06141004 -160.83177648 153.20796318 -160.81477356 150.35434723 C-160.80450356 148.36107135 -160.80389863 146.36775299 -160.80358887 144.37445068 C-160.61057973 129.42943583 -156.6893805 116.46255663 -146.28466797 105.4387207 C-140.54687133 100.21770575 -134.13246711 95.90551167 -127.77783203 91.47583008 C-123.74731164 88.63625513 -119.79442643 85.69319483 -115.83544922 82.75512695 C-108.95955987 77.67154434 -102.04509791 72.64508424 -95.10498047 67.6496582 C-89.65461084 63.72120679 -84.23870905 59.74807427 -78.83544922 55.75512695 C-71.95841362 50.67307618 -65.04511838 45.64509898 -58.10498047 40.6496582 C-51.85455292 36.14455074 -45.65219889 31.57627091 -39.45629883 26.99658203 C-33.21937413 22.39214528 -26.94724432 17.83842276 -20.64135742 13.32885742 C-17.27953957 10.91764841 -13.95523547 8.48459286 -10.71826172 5.9074707 C-10.17226318 5.47732666 -9.62626465 5.04718262 -9.0637207 4.60400391 C-7.63788338 3.4714223 -6.2262299 2.32104595 -4.81591797 1.16918945 C-2.33544922 -0.24487305 -2.33544922 -0.24487305 0 0 Z " fill="#236EB4" transform="translate(345.33544921875,311.244873046875)"/>
<path d="M0 0 C2.51851261 1.29881473 5.01402027 2.60753388 7.47875977 4.00610352 C8.41453857 4.5356665 9.35031738 5.06522949 10.31445312 5.61083984 C11.30195557 6.17440186 12.28945801 6.73796387 13.30688477 7.31860352 C14.32081299 7.89441162 15.33474121 8.47021973 16.37939453 9.06347656 C25.15706064 14.06103534 33.8752848 19.15625615 42.55688477 24.31860352 C38.56196793 28.58768131 34.20169217 31.89283082 29.43188477 35.25610352 C27.81406934 36.41017169 26.19690273 37.56514983 24.58032227 38.72094727 C23.74984375 39.31375488 22.91936523 39.9065625 22.0637207 40.51733398 C18.03345781 43.41325136 14.04566651 46.36594924 10.05688477 49.31860352 C3.18030413 54.40126302 -3.733454 59.4286372 -10.67358398 64.42407227 C-16.92401153 68.92917973 -23.12636556 73.49745956 -29.32226562 78.07714844 C-34.05200926 81.56890222 -38.80005331 85.03316388 -43.57128906 88.46801758 C-45.82623971 90.0919444 -48.07619796 91.72261157 -50.32592773 93.35375977 C-52.8837376 95.20553836 -55.45809611 97.02595234 -58.06030273 98.81469727 C-65.02646466 103.72848141 -70.26558907 108.0916855 -71.90405273 116.75610352 C-72.33000291 123.24677281 -70.56401425 129.25928195 -66.44311523 134.31860352 C-59.98675028 139.34927274 -52.596865 143.21009669 -45.50561523 147.25610352 C-43.77576963 148.2485249 -42.04592681 149.24095116 -40.31625366 150.2336731 C-38.53371652 151.25624442 -36.75043327 152.27750486 -34.96704102 153.29858398 C-29.45121736 156.45830263 -23.94790778 159.63972073 -18.44311523 162.81860352 C-16.27650554 164.06870227 -14.10983873 165.31870203 -11.94311523 166.56860352 C1.05688477 174.06860352 14.05688477 181.56860352 27.05688477 189.06860352 C28.130271 189.68783691 29.20365723 190.30707031 30.30957031 190.94506836 C32.46738279 192.19001633 34.62509829 193.43513242 36.78271484 194.68041992 C42.33405069 197.88413002 47.88725018 201.08453982 53.44360352 204.27954102 C55.15193359 205.26277344 55.15193359 205.26277344 56.89477539 206.26586914 C59.03475964 207.49745192 61.17532703 208.72802237 63.31665039 209.95727539 C65.33175824 211.11756846 67.32786427 212.3114518 69.30419922 213.53662109 C71.87204364 214.94341359 73.8884963 215.78668258 76.62792969 216.63769531 C81.24761741 218.29885662 84.91798281 220.0256145 87.55688477 224.31860352 C89.96831573 233.93078306 89.0351208 244.31786927 88.58685303 254.14099121 C88.43248894 257.88057587 88.36471272 261.62166338 88.28930664 265.36352539 C88.12913759 272.68602708 87.87372829 280.00102698 87.55688477 287.31860352 C85.83298784 286.38013702 84.10931877 285.44125198 82.38574219 284.50219727 C81.42584885 283.97940186 80.46595551 283.45660645 79.47697449 282.91796875 C74.920019 280.42207414 70.39219184 277.87573673 65.86938477 275.31860352 C64.880271 274.75955322 63.89115723 274.20050293 62.87207031 273.62451172 C54.83885147 269.07110872 46.85946275 264.42936035 38.89208984 259.76196289 C31.14332748 255.22829165 23.35726835 250.76254161 15.55688477 246.31860352 C5.88197692 240.80613492 -3.75593887 235.23435652 -13.36499023 229.60766602 C-21.02885498 225.12694086 -28.72997358 220.71366127 -36.44311523 216.31860352 C-46.16293709 210.77955523 -55.84961424 205.18714133 -65.50561523 199.53735352 C-71.71012971 195.90845314 -77.92646436 192.30103302 -84.15478516 188.71313477 C-86.3329474 187.45821317 -88.51020658 186.20172271 -90.68652344 184.94360352 C-96.19201091 181.76130802 -101.70772848 178.59960174 -107.24389648 175.47094727 C-109.41453248 174.23277659 -111.58510771 172.99449938 -113.75561523 171.75610352 C-114.75786133 171.19665039 -115.76010742 170.63719727 -116.79272461 170.06079102 C-122.98336605 166.50983566 -128.08710293 163.38664044 -130.44311523 156.31860352 C-130.55161838 154.40304203 -130.60197681 152.48397593 -130.62011719 150.56542969 C-130.63295242 149.38377731 -130.64578766 148.20212494 -130.65901184 146.98466492 C-130.66639877 145.70654434 -130.67378571 144.42842377 -130.68139648 143.11157227 C-130.68946823 141.79828445 -130.69753998 140.48499664 -130.70585632 139.13191223 C-130.72086973 136.3503126 -130.73071416 133.56873838 -130.73828125 130.78710938 C-130.74933868 127.23280367 -130.78373595 123.67912522 -130.82345295 120.12504101 C-130.85596183 116.72474362 -130.86040127 113.32451303 -130.86889648 109.92407227 C-130.88640457 108.65202438 -130.90391266 107.3799765 -130.92195129 106.06938171 C-130.89501043 95.10073988 -130.89501043 95.10073988 -126.44311523 90.31860352 C-123.84155273 88.00219727 -123.84155273 88.00219727 -120.81811523 85.75610352 C-120.25817871 85.33683594 -119.69824219 84.91756836 -119.12133789 84.4855957 C-117.23806404 83.08321198 -115.34270246 81.69880163 -113.44311523 80.31860352 C-112.7637793 79.82440918 -112.08444336 79.33021484 -111.38452148 78.82104492 C-107.65915705 76.11673794 -103.92420274 73.42602962 -100.18530273 70.74047852 C-95.40978125 67.3043123 -90.67366108 63.81631693 -85.94311523 60.31860352 C-79.06622616 55.23635658 -72.15278187 50.20857372 -65.21264648 45.21313477 C-59.76227685 41.28468336 -54.34637507 37.31155083 -48.94311523 33.31860352 C-42.07763679 28.24509335 -35.18832556 23.20743816 -28.24121094 18.24609375 C-24.19001636 15.34371209 -20.2043476 12.37844158 -16.26733398 9.32250977 C-15.40946289 8.66508789 -14.5515918 8.00766602 -13.66772461 7.33032227 C-12.00767373 6.05493291 -10.35864715 4.76503166 -8.72241211 3.45922852 C-7.97411133 2.88817383 -7.22581055 2.31711914 -6.45483398 1.72875977 C-5.47196411 0.95737671 -5.47196411 0.95737671 -4.46923828 0.17041016 C-2.44311523 -0.68139648 -2.44311523 -0.68139648 0 0 Z " fill="#FDFEFE" transform="translate(348.443115234375,349.681396484375)"/>
<path d="M0 0 C3.53064211 1.38427362 6.80355979 2.90979826 10.11328125 4.765625 C11.59501831 5.59489502 11.59501831 5.59489502 13.10668945 6.44091797 C14.16460693 7.03791504 15.22252441 7.63491211 16.3125 8.25 C17.42262451 8.87406738 18.53274902 9.49813477 19.67651367 10.14111328 C28.08587771 14.88369692 36.43691436 19.72246106 44.76489258 24.60644531 C52.47854463 29.12670684 60.23165875 33.57476045 68 38 C77.72142984 43.53953103 87.40895304 49.13375187 97.06689453 54.78344727 C107.59084625 60.93766742 118.15380137 67.02369996 128.71777344 73.10888672 C134.14659942 76.23680148 139.57319281 79.36858448 145 82.5 C147.16665583 83.75001879 149.3333225 85.00001878 151.5 86.25 C155.83333333 88.75 160.16666667 91.25 164.5 93.75 C165.57419189 94.36963623 166.64838379 94.98927246 167.75512695 95.62768555 C169.90501869 96.86818812 172.05459959 98.10922956 174.20385742 99.35083008 C179.26796479 102.27543382 184.33500902 105.19453767 189.4133606 108.09432983 C191.80537117 109.46063872 194.19559708 110.83005286 196.58569336 112.19970703 C198.26828963 113.16221014 199.95344836 114.12022931 201.63867188 115.078125 C202.66154297 115.66464844 203.68441406 116.25117188 204.73828125 116.85546875 C205.63587158 117.36746826 206.53346191 117.87946777 207.45825195 118.40698242 C212.15992521 121.35371357 215.49991028 123.98025939 218 129 C218.38095093 131.99058533 218.38095093 131.99058533 218.38818359 135.34741211 C218.39764008 136.60899643 218.40709656 137.87058075 218.4168396 139.1703949 C218.41146897 140.53938106 218.40531579 141.90836434 218.3984375 143.27734375 C218.40046026 144.69072113 218.40337338 146.10409749 218.40713501 147.51747131 C218.41155036 150.47553472 218.40515404 153.43332576 218.39111328 156.39135742 C218.37403718 160.17198642 218.383857 163.95197569 218.40183067 167.73258114 C218.41270349 170.6503628 218.40920598 173.56799438 218.4014473 176.48578072 C218.39945412 177.87915689 218.40187342 179.27254695 218.40888596 180.66590691 C218.41655549 182.61833286 218.40278166 184.57080692 218.38818359 186.52319336 C218.38579681 187.63174179 218.38341003 188.74029022 218.38095093 189.88243103 C217.5868001 196.38148328 214.34593955 200.03944972 209.53125 204.04296875 C205.44967817 207.19862845 201.24476512 210.17122168 197.02734375 213.140625 C192.55319508 216.29937173 188.15199166 219.55430123 183.75 222.8125 C177.52700549 227.41324226 171.28146675 231.97941475 165 236.5 C158.80341871 240.96015427 152.64016025 245.46249169 146.5 250 C139.63097922 255.07612792 132.72602253 260.0986444 125.79370117 265.08789062 C119.31228931 269.75912707 112.87764562 274.49239848 106.45507812 279.24414062 C104.99046609 280.3270119 103.5220469 281.40475864 102.04931641 282.4765625 C100.69873122 283.4805715 99.37151482 284.5169207 98.07177734 285.5859375 C96.26171875 287.03125 96.26171875 287.03125 93 289 C88.96373901 287.84781549 85.43294376 285.63395736 81.80859375 283.55078125 C81.22263931 283.21507614 80.63668488 282.87937103 80.03297424 282.53349304 C78.16605729 281.4628585 76.30177901 280.38771995 74.4375 279.3125 C73.21305612 278.60973762 71.988448 277.90726131 70.76367188 277.20507812 C63.15520289 272.83858796 55.57142731 268.4304155 48 264 C51.48374457 260.34239017 55.02543724 257.403996 59.1875 254.5 C60.43789776 253.6203568 61.68787727 252.74011886 62.9375 251.859375 C63.5975 251.39595703 64.2575 250.93253906 64.9375 250.45507812 C68.54009652 247.91347357 72.11382801 245.33204518 75.6875 242.75 C76.44184326 242.20537109 77.19618652 241.66074219 77.97338867 241.09960938 C84.30956845 236.51669943 90.60429374 231.87876121 96.89331055 227.23144531 C102.23769705 223.2864018 107.60880699 219.38078542 113 215.5 C120.82816319 209.86197108 128.61760376 204.17413538 136.359375 198.41796875 C139.39965393 196.16196965 142.46983559 193.96199281 145.578125 191.80078125 C153.97930494 185.89074682 160.56506339 181.1438946 162.4453125 170.47265625 C162.90698102 163.95911561 161.01756628 159.07264408 157 154 C150.64531743 148.89862537 143.11975556 145.08911099 136.0625 141.0625 C134.3326544 140.07007862 132.60281157 139.07765235 130.87313843 138.08493042 C129.09060128 137.06235909 127.30731803 136.04109866 125.52392578 135.02001953 C120.00810212 131.86030089 114.50479254 128.67888278 109 125.5 C106.83339031 124.24990125 104.6667235 122.99990149 102.5 121.75 C89.5 114.25 76.5 106.75 63.5 99.25 C62.4267749 98.63084717 61.3535498 98.01169434 60.24780273 97.3737793 C58.08840605 96.1279423 55.92906331 94.88201182 53.76977539 93.63598633 C48.24232403 90.44651047 42.71384879 87.25883115 37.18359375 84.07421875 C27.41988106 78.45024164 17.65696476 72.82522407 7.9375 67.125 C7.23488037 66.71403076 6.53226074 66.30306152 5.80834961 65.87963867 C1.12047717 63.12047717 1.12047717 63.12047717 0 62 C-0.09396057 60.06693502 -0.11743517 58.13041162 -0.11352539 56.19506836 C-0.11344986 54.95385727 -0.11337433 53.71264618 -0.11329651 52.43382263 C-0.10818911 51.0691626 -0.1029731 49.70450298 -0.09765625 48.33984375 C-0.095792 46.95121817 -0.09436813 45.56259193 -0.09336853 44.17396545 C-0.08954387 40.51278885 -0.07971403 36.8516517 -0.06866455 33.19049072 C-0.05844932 29.45707737 -0.05387067 25.72365766 -0.04882812 21.99023438 C-0.03809171 14.66013823 -0.02101591 7.33007464 0 0 Z " fill="#FEFEFE" transform="translate(398,198)"/>
</svg>
